<?xml version="1.0" encoding="UTF-8"?>
<svg id="Layer_2" data-name="Layer 2" xmlns="http://www.w3.org/2000/svg" viewBox="0 0 1200 239.57">
  <defs>
    <style>
      .cls-1 {
        fill: #fff;
      }
    </style>
  </defs>
  <g id="Layer_1-2" data-name="Layer 1">
    <g>
      <g>
        <path class="cls-1" d="M173.62,84.3c0,49.75-17.05,83.16-92.2,83.16H13.92v70.63H0V1.49h81.42c75.15,0,92.2,33.05,92.2,82.81ZM159.7,84.3c0-60.19-30.97-68.89-78.29-68.89H13.92v138.13h67.5c47.32,0,78.29-10.09,78.29-69.24Z"/>
        <path class="cls-1" d="M340.62,141.36h37.92v96.73h-13.92v-88.03h-142.31v88.03h-13.92V1.49h77.94c75.15,0,92.2,33.05,92.2,75.85,0,36.53-20.53,52.54-37.92,58.45v5.57ZM286.35,136.14c50.8,0,78.29-10.09,78.29-58.8,0-53.24-30.97-61.93-78.29-61.93h-64.02v120.73h64.02Z"/>
        <path class="cls-1" d="M759.18,1.49v236.6h-107.86v-13.92h93.94V1.49h13.92Z"/>
        <path class="cls-1" d="M902.52,1.49c64.72,0,97.77,41.4,99.86,90.12h-13.92c-9.39-58.45-38.62-76.2-85.94-76.2-50.1,0-91.16,30.97-91.16,104.38s41.06,104.38,91.16,104.38c47.32,0,76.55-17.74,85.94-76.2h13.92c-2.09,48.71-35.14,90.11-99.86,90.11-75.85,0-105.08-59.15-105.08-118.3S826.67,1.49,902.52,1.49Z"/>
        <path class="cls-1" d="M1200,15.4h-83.16v222.68h-13.92V15.4h-83.16V1.49h180.23v13.92Z"/>
      </g>
      <path class="cls-1" d="M530.28,239.57c-66.04,0-119.78-53.74-119.78-119.78S464.24,0,530.28,0s119.79,53.74,119.79,119.79-53.74,119.78-119.79,119.78ZM530.28,12.65c-59.08,0-107.13,48.06-107.13,107.14s48.06,107.13,107.13,107.13,107.14-48.06,107.14-107.13-48.06-107.14-107.14-107.14Z"/>
    </g>
  </g>
</svg>